<?xml version="1.0" standalone="no"?>
<!DOCTYPE svg PUBLIC "-//W3C//DTD SVG 20010904//EN"
 "http://www.w3.org/TR/2001/REC-SVG-20010904/DTD/svg10.dtd">
<svg version="1.0" xmlns="http://www.w3.org/2000/svg"
 width="300.000000pt" height="300.000000pt" viewBox="0 0 300.000000 300.000000"
 preserveAspectRatio="xMidYMid meet">
<metadata>
Created by potrace 1.10, written by Peter Selinger 2001-2011
</metadata>
<g transform="translate(0.000000,300.000000) scale(0.050000,-0.050000)"
fill="#000000" stroke="none">
<path d="M1915 4560 c-31 -36 -61 -73 -67 -84 -7 -10 -11 -222 -9 -471 2 -249
-3 -595 -11 -769 l-14 -316 -120 0 -120 0 14 375 c29 806 33 898 43 991 10 88
5 101 -50 153 -34 31 -61 67 -61 78 0 30 -74 38 -588 63 l-458 22 -77 -83
c-69 -73 -77 -94 -77 -186 -1 -118 -52 -2022 -72 -2685 -19 -586 -87 -528 619
-528 688 0 615 -62 628 529 l11 451 147 0 147 0 0 -430 c0 -511 0 -511 195
-509 544 7 1110 52 1139 90 31 40 28 782 -7 1659 l-12 320 247 6 c137 3 271
10 300 16 l52 10 13 -226 c7 -124 27 -572 44 -995 34 -881 30 -861 185 -861
315 0 938 45 977 71 53 34 57 69 86 839 11 308 27 710 34 892 l12 332 292 15
c417 20 377 -42 395 608 l14 499 -68 81 -68 82 -1217 1 c-1142 0 -1217 -2
-1226 -35 -21 -76 -102 -112 -150 -66 -24 22 -48 37 -52 33 -9 -9 29 -1956 45
-2312 5 -126 11 -342 12 -480 l3 -250 -468 -23 c-257 -13 -510 -24 -562 -25
l-94 -2 -6 472 -5 472 -252 3 -253 3 -12 -178 c-7 -98 -13 -252 -13 -342 0
-90 -6 -233 -13 -317 l-13 -153 -497 0 -497 0 0 115 c0 63 9 399 19 745 11
347 30 1004 42 1460 13 457 26 833 30 837 3 4 117 -3 252 -15 136 -11 362 -23
503 -26 140 -2 266 -11 279 -19 22 -14 -7 -1141 -39 -1473 l-12 -125 255 5
255 6 -3 450 c-2 247 3 621 11 831 l14 382 512 -8 c355 -7 506 -3 492 11 -12
13 -214 27 -510 35 l-490 13 -55 -64z m3716 -465 c-8 -256 -17 -468 -20 -471
-3 -3 -154 -11 -335 -18 l-329 -12 -25 -662 c-13 -364 -30 -835 -36 -1047
l-12 -385 -52 0 c-29 0 -239 -10 -468 -22 -229 -13 -420 -19 -425 -14 -7 8
-31 507 -82 1753 l-13 327 -242 -13 c-133 -7 -285 -17 -338 -24 l-97 -11 12
387 c7 213 17 452 23 532 l11 145 1222 0 1221 0 -15 -465z"/>
</g>
</svg>
